<svg width="1080" height="1080" viewBox="0 0 1080 1080" fill="none" xmlns="http://www.w3.org/2000/svg">
<path d="M255.17 374H89.3198C45.5126 374 10 409.545 10 453.391V626.609C10 670.455 45.5126 706 89.3198 706H255.17C298.978 706 334.489 670.455 334.489 626.609V453.391C334.489 409.545 298.978 374 255.17 374Z" fill="#9580FF"/>
<path d="M237.266 466.574C236.827 465.428 236.106 464.397 235.161 463.567C234.216 462.737 233.077 462.133 231.835 461.805L222.394 459.304C220.781 458.877 219.07 458.935 217.498 459.47C215.927 460.005 214.571 460.991 213.621 462.29L108.166 606.496C107.435 607.495 106.969 608.646 106.806 609.851C106.642 611.059 106.786 612.287 107.226 613.431C107.667 614.577 108.389 615.607 109.334 616.435C110.279 617.266 111.419 617.869 112.659 618.196L122.104 620.696C123.715 621.124 125.425 621.067 126.995 620.533C128.567 619.997 129.921 619.013 130.87 617.715L236.324 473.505C237.053 472.507 237.519 471.357 237.683 470.15C237.846 468.944 237.705 467.72 237.266 466.574Z" fill="white"/>
<path d="M261.048 525.564C260.767 524.82 260.304 524.151 259.695 523.614C259.088 523.077 258.354 522.686 257.555 522.474L251.47 520.864C250.431 520.588 249.329 520.628 248.315 520.977C247.301 521.326 246.426 521.968 245.812 522.812L177.623 616.567C177.15 617.216 176.848 617.963 176.74 618.747C176.634 619.531 176.724 620.328 177.006 621.07C177.288 621.814 177.753 622.481 178.361 623.018C178.97 623.555 179.704 623.946 180.503 624.157L186.587 625.769C187.625 626.044 188.728 626.004 189.742 625.655C190.756 625.305 191.629 624.664 192.242 623.821L260.43 530.065C260.903 529.415 261.204 528.668 261.311 527.885C261.418 527.101 261.329 526.306 261.048 525.564Z" fill="white"/>
<path d="M166.781 465.528C166.499 464.785 166.036 464.116 165.428 463.579C164.82 463.042 164.086 462.651 163.287 462.439L157.203 460.828C156.164 460.553 155.061 460.593 154.048 460.942C153.033 461.291 152.158 461.933 151.545 462.778L83.3551 556.531C82.8827 557.18 82.5805 557.929 82.473 558.711C82.3663 559.495 82.4572 560.292 82.7391 561.036C83.0211 561.778 83.4855 562.446 84.094 562.983C84.702 563.521 85.436 563.91 86.235 564.122L92.3203 565.733C93.3579 566.009 94.4605 565.968 95.4735 565.619C96.4874 565.271 97.3614 564.63 97.9751 563.785L166.163 470.03C166.635 469.38 166.936 468.633 167.044 467.849C167.151 467.066 167.062 466.271 166.781 465.528Z" fill="white"/>
<path d="M424.446 385.555C432.296 385.555 440.92 386.551 450.319 388.543V503.913H432.406V401.491C430.638 401.38 427.983 401.325 424.446 401.325C411.398 401.325 404.875 407.301 404.875 419.253V420.913H420.299V438.177H404.875V503.913H386.964V438.177H374.358V420.913H386.964V419.253C386.964 396.787 399.457 385.555 424.446 385.555ZM510.185 506.071C498.023 506.071 487.684 501.865 479.171 493.455C470.657 485.044 466.401 474.697 466.401 462.413C466.401 450.129 470.657 439.781 479.171 431.371C487.684 422.96 498.023 418.755 510.185 418.755C522.459 418.755 532.796 422.96 541.2 431.371C549.713 439.781 553.969 450.129 553.969 462.413C553.969 474.697 549.713 485.044 541.2 493.455C532.796 501.865 522.459 506.071 510.185 506.071ZM491.775 481.171C496.751 486.151 502.888 488.641 510.185 488.641C517.483 488.641 523.619 486.151 528.594 481.171C533.57 476.191 536.058 469.938 536.058 462.413C536.058 454.887 533.57 448.635 528.594 443.655C523.619 438.675 517.483 436.185 510.185 436.185C502.888 436.185 496.751 438.675 491.775 443.655C486.8 448.635 484.312 454.887 484.312 462.413C484.312 469.938 486.8 476.191 491.775 481.171ZM609.306 506.071C597.144 506.071 586.805 501.865 578.293 493.455C569.778 485.044 565.522 474.697 565.522 462.413C565.522 450.129 569.778 439.781 578.293 431.371C586.805 422.96 597.144 418.755 609.306 418.755C621.58 418.755 631.917 422.96 640.321 431.371C648.834 439.781 653.092 450.129 653.092 462.413C653.092 474.697 648.834 485.044 640.321 493.455C631.917 501.865 621.58 506.071 609.306 506.071ZM590.897 481.171C595.872 486.151 602.009 488.641 609.306 488.641C616.605 488.641 622.74 486.151 627.716 481.171C632.691 476.191 635.179 469.938 635.179 462.413C635.179 454.887 632.691 448.635 627.716 443.655C622.74 438.675 616.605 436.185 609.306 436.185C602.009 436.185 595.872 438.675 590.897 443.655C585.921 448.635 583.433 454.887 583.433 462.413C583.433 469.938 585.921 476.191 590.897 481.171ZM446.67 586.912H464.581V669.912H446.67V657.961C439.926 667.367 430.25 672.07 417.646 672.07C406.258 672.07 396.528 667.865 388.455 659.454C380.385 650.933 376.35 640.586 376.35 628.413C376.35 616.129 380.385 605.781 388.455 597.371C396.528 588.96 406.258 584.755 417.646 584.755C430.25 584.755 439.926 589.402 446.67 598.698V586.912ZM401.724 647.503C406.7 652.482 412.946 654.973 420.465 654.973C427.983 654.973 434.231 652.482 439.206 647.503C444.182 642.411 446.67 636.049 446.67 628.413C446.67 620.776 444.182 614.468 439.206 609.489C434.231 604.399 427.983 601.853 420.465 601.853C412.946 601.853 406.7 604.399 401.724 609.489C396.749 614.468 394.261 620.776 394.261 628.413C394.261 636.049 396.749 642.411 401.724 647.503ZM529.078 584.755C538.587 584.755 546.27 587.799 552.131 593.884C557.991 599.971 560.921 608.327 560.921 618.95V669.912H543.008V620.776C543.008 614.579 541.35 609.821 538.033 606.501C534.717 603.181 530.183 601.521 524.434 601.521C518.132 601.521 513.046 603.512 509.176 607.496C505.305 611.371 503.37 617.346 503.37 625.425V669.912H485.459V586.912H503.37V597.536C508.788 589.016 517.358 584.755 529.078 584.755ZM645.885 586.912H663.796V669.912H645.885V657.961C639.139 667.367 629.465 672.07 616.861 672.07C605.473 672.07 595.743 667.865 587.67 659.454C579.6 650.933 575.565 640.586 575.565 628.413C575.565 616.129 579.6 605.781 587.67 597.371C595.743 588.96 605.473 584.755 616.861 584.755C629.465 584.755 639.139 589.402 645.885 598.698V586.912ZM600.939 647.503C605.915 652.482 612.161 654.973 619.68 654.973C627.198 654.973 633.446 652.482 638.421 647.503C643.397 642.411 645.885 636.049 645.885 628.413C645.885 620.776 643.397 614.468 638.421 609.489C633.446 604.399 627.198 601.853 619.68 601.853C612.161 601.853 605.915 604.399 600.939 609.489C595.964 614.468 593.476 620.776 593.476 628.413C593.476 636.049 595.964 642.411 600.939 647.503ZM684.674 669.912V548.733H702.587V669.912H684.674ZM779.271 586.912H798.344L766.501 672.569C758.541 694.039 745.056 704.219 726.036 703.112V686.347C731.673 686.679 736.208 685.461 739.633 682.694C743.066 680.039 745.885 675.833 748.091 670.079L748.921 668.418L713.763 586.912H733.331L758.043 647.171L779.271 586.912ZM855.823 604.176H835.257V644.016C835.257 647.447 836.028 649.936 837.579 651.487C839.121 652.925 841.393 653.755 844.379 653.976C847.472 654.087 851.286 654.032 855.823 653.811V669.912C842.107 671.573 832.271 670.411 826.301 666.427C820.331 662.331 817.345 654.863 817.345 644.016V604.176H802.086V586.912H817.345V568.985L835.257 563.672V586.912H855.823V604.176ZM888.985 571.143C886.771 573.357 884.118 574.463 881.025 574.463C877.923 574.463 875.219 573.357 872.898 571.143C870.684 568.818 869.58 566.108 869.58 563.009C869.58 559.91 870.684 557.254 872.898 555.041C875.104 552.717 877.816 551.555 881.025 551.555C884.225 551.555 886.937 552.717 889.151 555.041C891.357 557.254 892.467 559.91 892.467 563.009C892.467 566.108 891.307 568.818 888.985 571.143ZM872.068 669.912V586.912H889.981V669.912H872.068ZM949.917 672.07C937.421 672.07 926.971 667.865 918.571 659.454C910.279 651.044 906.133 640.696 906.133 628.413C906.133 616.018 910.279 605.67 918.571 597.371C926.971 588.96 937.421 584.755 949.917 584.755C957.986 584.755 965.341 586.691 971.975 590.564C978.61 594.439 983.585 599.639 986.901 606.169L971.478 615.133C969.596 611.148 966.719 608.051 962.853 605.837C959.09 603.512 954.726 602.35 949.751 602.35C942.454 602.35 936.317 604.841 931.341 609.821C926.475 614.801 924.045 620.999 924.045 628.413C924.045 635.828 926.475 642.025 931.341 647.004C936.317 651.985 942.454 654.475 949.751 654.475C954.611 654.475 958.981 653.312 962.853 650.988C966.834 648.665 969.82 645.566 971.809 641.693L987.233 650.491C983.693 657.131 978.61 662.388 971.975 666.261C965.341 670.134 957.986 672.07 949.917 672.07ZM1015.78 609.821C1015.78 612.588 1017.27 614.801 1020.26 616.461C1023.35 618.011 1027.06 619.393 1031.37 620.611C1035.79 621.717 1040.21 623.045 1044.64 624.595C1049.06 626.145 1052.77 628.8 1055.75 632.562C1058.84 636.214 1060.39 640.863 1060.39 646.507C1060.39 654.475 1057.3 660.727 1051.11 665.265C1045.02 669.802 1037.34 672.07 1028.06 672.07C1019.87 672.07 1012.85 670.355 1006.99 666.924C1001.13 663.494 996.875 658.736 994.221 652.649L1009.65 643.684C1012.51 651.653 1018.65 655.637 1028.06 655.637C1037.45 655.637 1042.15 652.538 1042.15 646.341C1042.15 643.684 1040.6 641.527 1037.51 639.867C1034.52 638.207 1030.82 636.823 1026.4 635.717C1022.08 634.499 1017.71 633.117 1013.29 631.567C1008.87 630.016 1005.11 627.472 1002.02 623.931C999.031 620.279 997.538 615.686 997.538 610.152C997.538 602.517 1000.41 596.374 1006.16 591.727C1012.02 587.079 1019.26 584.755 1027.89 584.755C1034.74 584.755 1040.82 586.305 1046.13 589.402C1051.55 592.39 1055.69 596.597 1058.57 602.018L1043.48 610.484C1040.6 604.176 1035.4 601.023 1027.89 601.023C1024.46 601.023 1021.59 601.797 1019.26 603.347C1016.94 604.785 1015.78 606.943 1015.78 609.821Z" fill="black"/>
</svg>
